<?xml version="1.0" encoding="utf-8"?>
<!-- Generator: Adobe Illustrator 19.2.1, SVG Export Plug-In . SVG Version: 6.00 Build 0)  -->
<svg version="1.1" id="Layer_1" xmlns="http://www.w3.org/2000/svg" xmlns:xlink="http://www.w3.org/1999/xlink" x="0px" y="0px"
	 viewBox="0 0 24 32" style="enable-background:new 0 0 24 32;" xml:space="preserve">
<style type="text/css">
	.st0{fill:#F04D2A;}
</style>
<g>
	<g>
		<path class="st0" d="M12,0C5.4,0,0,5.4,0,12.1c0,6.5,11.1,19.1,11.5,19.7c0.2,0.3,0.6,0.3,0.9,0c0,0,0,0,0,0
			C12.9,31.3,24,18.6,24,12.1C24,5.4,18.6,0,12,0z M12,30.4c-2.1-2.5-10.8-13-10.8-18.3c0-6,4.8-10.9,10.8-10.9
			c5.9,0,10.8,4.9,10.8,10.9C22.8,17.5,14.1,27.9,12,30.4z M12.2,6.1c-3.6,0-6.5,2.9-6.5,6.6c0,3.6,2.9,6.6,6.5,6.6
			c3.6,0,6.5-2.9,6.5-6.6C18.7,9,15.8,6.1,12.2,6.1z M12.2,18c-2.9,0-5.3-2.4-5.3-5.3c0-2.9,2.4-5.3,5.3-5.3c2.9,0,5.3,2.4,5.3,5.3
			C17.5,15.6,15.1,18,12.2,18z"/>
	</g>
</g>
</svg>
