<?xml version="1.0" encoding="utf-8"?>
<!-- Generator: Adobe Illustrator 19.2.1, SVG Export Plug-In . SVG Version: 6.00 Build 0)  -->
<svg version="1.1" id="Layer_1" xmlns="http://www.w3.org/2000/svg" xmlns:xlink="http://www.w3.org/1999/xlink" x="0px" y="0px"
	 viewBox="0 0 100 100" style="enable-background:new 0 0 100 100;" xml:space="preserve">
<style type="text/css">
	.st0{fill-rule:evenodd;clip-rule:evenodd;fill:#2962ff;}
	.st1{fill-rule:evenodd;clip-rule:evenodd;fill:none;stroke:#2962ff;stroke-width:2;stroke-miterlimit:10;}
</style>
<g>
	<g>
		<path class="st0" d="M68.4,39.4c0.2-1,0.3-1.9,0.3-2.9C68.7,26.9,60.7,19,51,19H37.2c-9.8,0-17.7,7.9-17.7,17.5
			c0,5,2.1,9.7,5.9,13v11l6-3.3C32,66.3,39.7,73.5,49,73.5h13.8c0,0,0,0,0.1,0L74.6,80V69c3.8-3.3,5.9-8.1,5.9-13
			C80.5,48.3,75.4,41.7,68.4,39.4z M31.4,55C31.4,55,31.4,55,31.4,55l-4,2.3v-8.6L27,48.4c-3.5-3-5.6-7.3-5.6-11.9
			c0-8.6,7.1-15.6,15.7-15.6H51c8.7,0,15.7,7,15.7,15.6c0,0.8-0.1,1.6-0.2,2.3c-1.2-0.3-2.5-0.4-3.7-0.4H28.4v1.9h12.6
			C35.5,43.2,31.7,48.6,31.4,55z M73,67.8l-0.3,0.3v8.6l-9.3-5.2l-0.3,0c-0.1,0-0.1,0-0.3,0H49c-8.7,0-15.7-7-15.7-15.6
			c0-8.6,7.1-15.6,15.7-15.6h13.8c8.7,0,15.7,7,15.7,15.6C78.5,60.5,76.5,64.8,73,67.8z M59.4,57.9c2.6-1.4,4.3-4.1,4.3-7.2
			c0-4.6-3.8-8.3-8.4-8.3c-4.6,0-8.4,3.7-8.4,8.3c0,3.1,1.8,5.8,4.3,7.2c-3.1,1.5-5.3,4.7-5.3,8.3v3.4h18.7v-3.4
			C64.8,62.5,62.6,59.3,59.4,57.9z M49,50.6c0-3.5,2.9-6.3,6.4-6.3c3.5,0,6.4,2.8,6.4,6.3c0,3.5-2.9,6.3-6.4,6.3
			C51.9,56.9,49,54.1,49,50.6z M62.8,67.6H48v-1.5c0-4,3.3-7.3,7.4-7.3c4.1,0,7.4,3.3,7.4,7.3V67.6z M53,49.2c0.5,0,1-0.4,1-1
			c0-0.5-0.4-1-1-1c-0.5,0-1,0.4-1,1C52,48.7,52.4,49.2,53,49.2z M57.9,49.2c0.5,0,1-0.4,1-1c0-0.5-0.4-1-1-1c-0.5,0-1,0.4-1,1
			C56.9,48.7,57.3,49.2,57.9,49.2z M60.1,52.7l-1.6-1.2c-0.8,1-1.9,1.6-3.1,1.6c-1.2,0-2.4-0.6-3.1-1.6l-1.6,1.2
			c1.1,1.5,2.8,2.3,4.7,2.3C57.3,55,59,54.1,60.1,52.7z M59.8,26.8H28.4v1.9h31.5V26.8z M59.8,32.6H28.4v1.9h31.5V32.6z"/>
	</g>
</g>
<path class="st1" d="M50,3c25.7,0,46.5,20.8,46.5,46.5C96.5,75.2,75.7,96,50,96S3.5,75.2,3.5,49.5C3.5,23.8,24.3,3,50,3z"/>
</svg>
