<?xml version="1.0" encoding="utf-8"?>
<!-- Generator: Adobe Illustrator 19.2.1, SVG Export Plug-In . SVG Version: 6.00 Build 0)  -->
<svg version="1.1" id="Layer_1" xmlns="http://www.w3.org/2000/svg" xmlns:xlink="http://www.w3.org/1999/xlink" x="0px" y="0px"
	 viewBox="0 0 90 90" style="enable-background:new 0 0 90 90;" xml:space="preserve">
<style type="text/css">
	.st0{fill-rule:evenodd;clip-rule:evenodd;fill:#01838F;}
	.st1{fill-rule:evenodd;clip-rule:evenodd;fill:none;stroke:#01838F;stroke-width:2;stroke-miterlimit:10;}
</style>
<g>
	<g>
		<path class="st0" d="M62,26H28c-2.5,0-4.5,2-4.5,4.5v24.5c0,2.5,2,4.5,4.5,4.5h12.2l-1.3,4.5H36V66H54v-1.8h-2.9l-1.3-4.5H62
			c2.5,0,4.5-2,4.5-4.5V30.5C66.5,28,64.5,26,62,26z M40.8,64.2l1.3-4.5h5.8l1.3,4.5H40.8z M64.7,55.1c0,1.5-1.2,2.7-2.7,2.7H28
			c-1.5,0-2.7-1.2-2.7-2.7v-1.8h39.4V55.1z M64.7,51.5H25.3V30.5c0-1.5,1.2-2.7,2.7-2.7h34c1.5,0,2.7,1.2,2.7,2.7V51.5z M42.3,46.7
			l1.7,0.5l3.6-12.7l-1.7-0.5L42.3,46.7z M39.1,35.3l-5.4,4.5c-0.4,0.3-0.4,0.9-0.1,1.3c0,0,0.1,0.1,0.1,0.1l5.4,4.5l1.1-1.4
			l-4.5-3.8l4.5-3.8L39.1,35.3z M56.3,39.8l-5.4-4.5l-1.1,1.4l4.5,3.8l-4.5,3.8l1.1,1.4l5.4-4.5c0.4-0.3,0.4-0.9,0.1-1.3
			C56.4,39.9,56.4,39.9,56.3,39.8z"/>
	</g>
</g>
<path class="st1" d="M45.5,3c23.2,0,42,18.8,42,42s-18.8,42-42,42c-23.2,0-42-18.8-42-42S22.3,3,45.5,3z"/>
</svg>
