<?xml version="1.0" encoding="utf-8"?>
<!-- Generator: Adobe Illustrator 19.2.1, SVG Export Plug-In . SVG Version: 6.00 Build 0)  -->
<svg version="1.1" id="Layer_1" xmlns="http://www.w3.org/2000/svg" xmlns:xlink="http://www.w3.org/1999/xlink" x="0px" y="0px"
	 viewBox="0 0 44 32" style="enable-background:new 0 0 44 32;" xml:space="preserve">
<style type="text/css">
	.st0{fill:#F04D2A;}
</style>
<g>
	<g>
		<path class="st0" d="M14.9,14.5V16c0,0.3,0.2,0.6,0.5,0.7c0.1,0,0.2,0,0.2,0c0.2,0,0.4-0.1,0.6-0.3l1.6-1.9h3v3.6
			c-0.1,1.2,0.8,2.2,2,2.3c0.1,0,0.2,0,0.3,0h0.5l1.5,1.8c0.3,0.3,0.7,0.3,1,0.1c0.2-0.1,0.3-0.3,0.3-0.6v-1.3h3.8
			c1.2,0.1,2.2-0.8,2.3-2c0-0.1,0-0.2,0-0.3v-3.6c0.1-1.2-0.8-2.2-2-2.3c-0.1,0-0.2,0-0.3,0H26V7.9c0.1-1.3-0.9-2.4-2.2-2.5
			c-0.1,0-0.2,0-0.3,0h-7.9c-1.3-0.1-2.4,0.9-2.5,2.2c0,0.1,0,0.2,0,0.3V12C13,13.2,13.8,14.3,14.9,14.5z M30.2,13.6
			c0.9,0,0.9,0.6,0.9,0.9v3.6c0,0.9-0.6,0.9-0.9,0.9h-4.5c-0.4,0-0.7,0.3-0.7,0.7v0.1l-0.4-0.5C24.4,19.1,24.2,19,24,19h-0.8
			c-0.9,0-0.9-0.6-0.9-0.9v-3.6c0-0.1,0-0.3,0.1-0.4c0.1-0.2,0.3-0.5,0.8-0.5H30.2z M15.3,6.9c0.1,0,0.2,0,0.3,0h7.9
			c0.5-0.1,1,0.3,1.1,0.8c0,0.1,0,0.2,0,0.3V12c0,0,0,0.1,0,0.2h-1.4c-0.8,0-1.5,0.3-1.9,0.9h-3.7c-0.2,0-0.4,0.1-0.5,0.3l-0.6,0.7
			v-0.2c0-0.4-0.4-0.7-0.8-0.7c-0.5,0.1-1-0.3-1.1-0.8c0-0.1,0-0.2,0-0.3l0-4.1C14.4,7.4,14.8,6.9,15.3,6.9z M42.4,25.6h-1.9V3.1
			c0.2-1.5-0.9-2.9-2.5-3.1c-0.2,0-0.4,0-0.6,0h-31c-1.5-0.2-2.9,1-3,2.5c0,0.2,0,0.4,0,0.6v22.5H1.6c-0.9,0-1.6,0.7-1.6,1.6v1.7
			C-0.1,30.5,1,31.8,2.5,32c0.2,0,0.4,0,0.6,0h37.9c1.5,0.2,2.9-0.9,3.1-2.5c0-0.2,0-0.4,0-0.6v-1.7C44,26.3,43.3,25.6,42.4,25.6z
			 M4.9,3.1c0-1.1,0.5-1.6,1.6-1.6h31.1c1.1,0,1.6,0.5,1.6,1.6v22.4c0,0.1-0.1,0.1-0.1,0.1H5c-0.1,0-0.1-0.1-0.1-0.1V3.1z
			 M42.5,28.9c0,1.1-0.5,1.6-1.6,1.6H3.1c-1.1,0-1.6-0.5-1.6-1.6v-1.7c0-0.1,0.1-0.1,0.1-0.1h40.8c0.1,0,0.1,0.1,0.1,0.1V28.9z"/>
	</g>
</g>
</svg>
