<?xml version="1.0" encoding="utf-8"?>
<!-- Generator: Adobe Illustrator 19.2.1, SVG Export Plug-In . SVG Version: 6.00 Build 0)  -->
<svg version="1.1" id="Layer_1" xmlns="http://www.w3.org/2000/svg" xmlns:xlink="http://www.w3.org/1999/xlink" x="0px" y="0px"
	 viewBox="0 0 42 42" style="enable-background:new 0 0 42 42;" xml:space="preserve">
<style type="text/css">
	.st0{fill-rule:evenodd;clip-rule:evenodd;fill:#FFFFFF;}
	.st1{fill:#2962ff;}
</style>
<g>
	<g>
		<circle class="st0" cx="21" cy="21" r="21"/>
	</g>
</g>
<path class="st1" d="M35.1,6.9C31.4,3.1,26.3,1,21,1C15.7,1,10.6,3.1,6.9,6.9C3.1,10.6,1,15.7,1,21c0,5.3,2.1,10.4,5.9,14.1
	C10.6,38.9,15.7,41,21,41c5.3,0,10.4-2.1,14.1-5.9C38.9,31.4,41,26.3,41,21C41,15.7,38.9,10.6,35.1,6.9z M34.3,34.3
	c-3.5,3.5-8.2,5.5-13.3,5.5c-5,0-9.7-2-13.3-5.5C4.2,30.7,2.3,26,2.3,21c0-5,2-9.7,5.5-13.3C11.3,4.2,16,2.2,21,2.2
	c5,0,9.7,1.9,13.3,5.5c3.5,3.5,5.5,8.2,5.5,13.3C39.8,26,37.8,30.7,34.3,34.3z"/>
<path class="st1" d="M34.6,10c-0.2-0.3-0.6-0.3-0.9-0.1c-0.3,0.2-0.3,0.6-0.1,0.9c2.3,2.9,3.6,6.5,3.6,10.2c0,4.3-1.7,8.4-4.8,11.5
	c-3.1,3.1-7.1,4.8-11.5,4.8c-4,0-7.9-1.5-10.8-4.1c-0.3-0.2-0.7-0.2-0.9,0c-0.2,0.3-0.2,0.7,0,0.9c3.2,2.9,7.4,4.5,11.7,4.5
	c4.7,0,9.1-1.8,12.4-5.1c3.3-3.3,5.1-7.7,5.1-12.4C38.5,17,37.1,13.1,34.6,10z"/>
<path class="st1" d="M4.8,21C4.8,12,12,4.7,21,4.7c4,0,7.9,1.5,10.8,4.1c0.3,0.2,0.7,0.2,0.9,0c0.2-0.3,0.2-0.7,0-0.9
	C29.5,5.1,25.3,3.5,21,3.5c-4.7,0-9.1,1.8-12.4,5.1C5.3,11.9,3.5,16.3,3.5,21c0,4,1.4,7.9,3.9,11c0.1,0.2,0.3,0.2,0.5,0.2
	c0.1,0,0.3,0,0.4-0.1c0.3-0.2,0.3-0.6,0.1-0.9C6,28.3,4.8,24.7,4.8,21z"/>
<path class="st1" d="M15.9,24.6c-0.8,0.6-1.2,1.3-1.2,2.2c0,0.8,0.4,1.6,1.2,2.2c0.7,0.5,1.7,0.8,2.7,0.8c1,0,1.9-0.3,2.7-0.8
	c0.8-0.6,1.2-1.3,1.2-2.2c0-0.8-0.4-1.6-1.2-2.2c-0.7-0.5-1.7-0.8-2.7-0.8C17.5,23.8,16.6,24,15.9,24.6z M21.1,26.7
	c0,0.9-1.2,1.7-2.6,1.7c-1.4,0-2.6-0.8-2.6-1.7c0-0.9,1.2-1.7,2.6-1.7C19.9,25,21.1,25.8,21.1,26.7z"/>
<path class="st1" d="M26,11.9c-0.1-0.2-0.3-0.4-0.6-0.4h-6.6c-1.5,0-3.1,0.6-4.2,1.6c-1.2,1-1.9,2.4-1.9,3.8c0,2.7,1.7,4.7,4.2,5.1
	c0,0,0,0.1,0,0.1c-1.4,0.2-2.7,0.8-3.7,1.6c-1.1,1-1.7,2.3-1.7,3.6c0,2.6,2.9,4.4,6.8,4.4c3.3,0,6.8-1.9,6.8-5.2
	c0-2.1-0.6-3.2-2.5-4.6l-0.1-0.1c-0.5-0.4-0.8-0.6-0.9-0.7c0.1-0.1,0.2-0.2,0.5-0.5c1.3-1,2-2.3,2-3.7c0-0.8-0.2-1.6-0.5-2.3l2.1-2
	C26,12.4,26,12.2,26,11.9z M22.5,14.1c-0.2,0.2-0.3,0.5-0.1,0.8c0.4,0.6,0.6,1.3,0.6,2.1c0,1-0.5,2-1.5,2.8c-0.9,0.7-1.1,1-1.1,1.6
	c0,0.1,0,0.1,0,0.2c0.1,0.3,0.4,0.6,1.4,1.4l0.1,0.1c1.6,1.2,2,1.9,2,3.6c0,1.4-0.9,2.3-1.7,2.8c-1,0.7-2.5,1.1-3.9,1.1
	c-1.6,0-3.1-0.3-4.1-1c-0.7-0.4-1.5-1.1-1.5-2.2c0-2.3,2.6-4,4.9-4.1c0.2,0,0.4-0.1,0.5-0.3c0.1-0.2,0.1-0.4,0-0.6
	c-0.1-0.2-0.1-0.3-0.1-0.5c0-0.1,0-0.2,0-0.3c0-0.2,0-0.4-0.1-0.5c-0.1-0.1-0.3-0.2-0.5-0.2c-2.2-0.1-3.6-1.7-3.6-3.9
	c0-1,0.5-2,1.4-2.8c0.9-0.8,2.2-1.3,3.4-1.3h5L22.5,14.1z"/>
<path class="st1" d="M16.9,13.8c-0.6,0.3-1.1,1-1.2,1.8c-0.1,0.8,0,1.6,0.4,2.4c0.7,1.3,1.8,2.1,2.9,2.1c0.3,0,0.6-0.1,0.9-0.2l0,0
	c1.3-0.6,1.6-2.5,0.7-4.1c-0.4-0.8-1-1.4-1.6-1.7C18.3,13.5,17.5,13.5,16.9,13.8z M18.4,15c0.4,0.2,0.8,0.7,1.1,1.2
	c0.5,1,0.4,2.2-0.2,2.5c-0.6,0.3-1.6-0.3-2.1-1.3c-0.3-0.5-0.4-1.1-0.3-1.6c0-0.2,0.1-0.7,0.5-0.9c0.1-0.1,0.2-0.1,0.4-0.1
	C18.1,14.8,18.3,14.9,18.4,15z"/>
<path class="st1" d="M29.1,20.3c0.3,0,0.6-0.3,0.6-0.6v-2.5h2.5c0.3,0,0.6-0.3,0.6-0.6c0-0.3-0.3-0.6-0.6-0.6h-2.5v-2.5
	c0-0.3-0.3-0.6-0.6-0.6c-0.3,0-0.6,0.3-0.6,0.6v2.5H26c-0.3,0-0.6,0.3-0.6,0.6c0,0.3,0.3,0.6,0.6,0.6h2.5v2.5
	C28.5,20,28.8,20.3,29.1,20.3z"/>
</svg>
