<?xml version="1.0" encoding="utf-8"?>
<!-- Generator: Adobe Illustrator 19.2.1, SVG Export Plug-In . SVG Version: 6.00 Build 0)  -->
<svg version="1.1" id="Layer_1" xmlns="http://www.w3.org/2000/svg" xmlns:xlink="http://www.w3.org/1999/xlink" x="0px" y="0px"
	 viewBox="0 0 120 120" style="enable-background:new 0 0 120 120;" xml:space="preserve">
<style type="text/css">
	.st0{fill:none;stroke:#52B848;stroke-width:2;stroke-miterlimit:10;}
	.st1{fill:#52B848;}
</style>
<g>
	<g>
		<circle class="st0" cx="60" cy="60" r="58"/>
	</g>
</g>
<path class="st1" d="M87.4,63.6l8.8-8.8l1.8,1.8l-8.8,8.8L87.4,63.6z"/>
<path class="st1" d="M89.8,69.3L77.2,56.7c0.9-0.6,1.7-1.3,2.5-2l4.4-4.4l-1.8-1.8l-4.4,4.4c-5.4,5.4-14.2,5.4-19.7,0L56.3,51
	c-0.5-0.5-1.2-0.5-1.7-0.1l-3.4,3c-3.6,3.2-9,3.4-12.9,0.5l17-15.9c1.2-1.1,2.7-1.7,4.3-1.7h14.9c1,0,2-0.4,2.7-1.1l6.8-6.8L82.3,27
	l-6.8,6.8c-0.2,0.2-0.6,0.4-0.9,0.4H59.7c-2.2,0-4.4,0.9-6,2.4l-18,16.9c-0.5,0.5-0.5,1.3-0.1,1.8c0,0,0,0,0,0
	c4.7,4.7,12.3,4.9,17.3,0.5l2.5-2.2l1.1,1.1c4.9,4.9,12.2,6.2,18.5,3.3L88,71.1c1.2,1.3,1.2,3.3-0.1,4.5c-1.2,1.2-3.2,1.2-4.5,0
	l-3.2-3.2l-1.8,1.8l3.2,3.2c1.2,1.3,1.2,3.3,0,4.5c-1.3,1.2-3.3,1.2-4.5,0L74,78.8l-1.8,1.8l3.2,3.2c1.2,1.3,1.2,3.3,0,4.5
	c-1.3,1.2-3.3,1.2-4.5,0l-3.2-3.2l-1.8,1.8l3.2,3.2c1.2,1.3,1.2,3.3,0,4.5c-1.3,1.2-3.3,1.2-4.5,0l-2.3-2.3c2.1-2.3,1.9-5.9-0.5-8
	c-1.2-1.1-2.9-1.6-4.5-1.4c0.4-3.1-1.8-5.9-4.9-6.3c-0.5-0.1-0.9-0.1-1.4,0c0.4-3.1-1.8-5.9-4.9-6.3c-0.5-0.1-0.9-0.1-1.4,0
	c0.4-3.1-1.8-5.9-4.9-6.3c-1.6-0.2-3.3,0.3-4.5,1.4L24.8,54.8L23,56.6L33.5,67l-2.3,2.3c-2.2,2.2-2.2,5.9,0,8.1
	c1.1,1.1,2.5,1.7,4.1,1.7c0.2,0,0.4,0,0.7-0.1c-0.4,3.1,1.8,5.9,4.9,6.3c0.2,0,0.5,0,0.7,0c0.2,0,0.4,0,0.7-0.1
	c-0.4,3.1,1.8,5.9,4.9,6.3c0.2,0,0.5,0,0.7,0c0.2,0,0.4,0,0.7-0.1c-0.4,3.1,1.9,6,5,6.3c1.7,0.2,3.5-0.4,4.7-1.6l2.3-2.3l2.3,2.3
	c2.2,2.2,5.9,2.2,8.1,0c1.2-1.2,1.8-2.9,1.6-4.7c3.1,0.3,6-1.9,6.3-5.1c0-0.4,0-0.8,0-1.3c3.1,0.3,6-1.9,6.3-5.1c0-0.4,0-0.8,0-1.3
	c3.1,0.3,6-1.9,6.3-5.1C91.6,72.2,91,70.5,89.8,69.3z M37.5,75.6c-1.3,1.2-3.3,1.2-4.5,0c-1.2-1.3-1.2-3.3,0-4.5l3.8-3.8
	c1.3-1.2,3.3-1.2,4.5,0.1c1.2,1.2,1.2,3.2,0,4.5L37.5,75.6z M43.8,81.9c-1.3,1.2-3.3,1.2-4.5,0c-1.2-1.3-1.2-3.3,0-4.5l3.8-3.8
	c1.3-1.2,3.3-1.2,4.5,0.1c1.2,1.2,1.2,3.2,0,4.5L43.8,81.9z M45.6,88.2c-1.2-1.3-1.2-3.3,0-4.5l3.8-3.8c1.3-1.2,3.3-1.2,4.5,0.1
	c1.2,1.2,1.2,3.2,0,4.5l-3.8,3.8C48.9,89.5,46.9,89.5,45.6,88.2z M60.2,90.7l-3.8,3.8c-1.3,1.2-3.3,1.2-4.5-0.1
	c-1.2-1.2-1.2-3.2,0-4.5l3.8-3.8C57,85,59,85,60.2,86.3C61.4,87.5,61.4,89.5,60.2,90.7z"/>
<path class="st1" d="M46.4,34.2c-0.3,0-0.7-0.1-0.9-0.4L38.7,27l-1.8,1.8l6.8,6.8c0.7,0.7,1.7,1.1,2.7,1.1h4v-2.5H46.4z"/>
</svg>
