<?xml version="1.0" encoding="utf-8"?>
<!-- Generator: Adobe Illustrator 19.2.1, SVG Export Plug-In . SVG Version: 6.00 Build 0)  -->
<svg version="1.1" id="Layer_1" xmlns="http://www.w3.org/2000/svg" xmlns:xlink="http://www.w3.org/1999/xlink" x="0px" y="0px"
	 viewBox="0 0 42 42" style="enable-background:new 0 0 42 42;" xml:space="preserve">
<style type="text/css">
	.st0{fill-rule:evenodd;clip-rule:evenodd;fill:#FFFFFF;}
	.st1{fill:#2962ff;}
</style>
<g>
	<g>
		<circle class="st0" cx="21" cy="21" r="21"/>
	</g>
</g>
<path class="st1" d="M35.1,6.9C31.4,3.1,26.3,1,21,1C15.7,1,10.6,3.1,6.9,6.9C3.1,10.6,1,15.7,1,21c0,5.3,2.1,10.4,5.9,14.1
	C10.6,38.9,15.7,41,21,41c5.3,0,10.4-2.1,14.1-5.9C38.9,31.4,41,26.3,41,21C41,15.7,38.9,10.6,35.1,6.9L35.1,6.9z M34.3,34.3
	c-3.5,3.5-8.2,5.5-13.3,5.5c-5,0-9.7-1.9-13.3-5.5C4.2,30.7,2.3,26,2.3,21c0-5,2-9.7,5.5-13.3C11.3,4.2,16,2.2,21,2.2
	c5,0,9.7,1.9,13.3,5.5c3.5,3.5,5.5,8.2,5.5,13.3C39.7,26,37.8,30.7,34.3,34.3L34.3,34.3z"/>
<path class="st1" d="M34.6,10c-0.2-0.3-0.6-0.3-0.9-0.1c-0.3,0.2-0.3,0.6-0.1,0.9c2.3,2.9,3.6,6.5,3.6,10.2c0,4.3-1.7,8.4-4.8,11.5
	c-3.1,3.1-7.1,4.8-11.5,4.8c-4,0-7.9-1.5-10.8-4.1c-0.3-0.2-0.7-0.2-0.9,0c-0.2,0.3-0.2,0.7,0,0.9c3.2,2.9,7.4,4.5,11.7,4.5
	c4.7,0,9.1-1.8,12.4-5.1c3.3-3.3,5.1-7.7,5.1-12.4C38.5,17,37.1,13.1,34.6,10L34.6,10z"/>
<path class="st1" d="M4.7,21C4.7,12,12,4.7,21,4.7c4,0,7.9,1.5,10.8,4.1c0.3,0.2,0.7,0.2,0.9,0c0.2-0.3,0.2-0.7,0-0.9
	C29.5,5.1,25.3,3.5,21,3.5c-4.7,0-9.1,1.8-12.4,5.1C5.3,11.9,3.5,16.3,3.5,21c0,4,1.4,7.9,3.9,11c0.1,0.2,0.3,0.2,0.5,0.2
	c0.1,0,0.3,0,0.4-0.1c0.3-0.2,0.3-0.6,0.1-0.9C6,28.3,4.7,24.7,4.7,21L4.7,21z"/>
<path class="st1" d="M26.3,11H15.8c-2.7,0-4.8,2.2-4.8,4.8v10.5c0,2.7,2.2,4.8,4.8,4.8h10.5c2.7,0,4.8-2.2,4.8-4.8V15.8
	C31.1,13.1,28.9,11,26.3,11z M29.8,26.3c0,2-1.6,3.5-3.5,3.5H15.8c-2,0-3.5-1.6-3.5-3.5V15.8c0-2,1.6-3.5,3.5-3.5h10.5
	c2,0,3.5,1.6,3.5,3.5V26.3z"/>
<path class="st1" d="M26.6,14.6c-0.4,0-0.8,0.3-0.8,0.8c0,0.4,0.3,0.8,0.8,0.8c0.4,0,0.8-0.3,0.8-0.8C27.4,15,27.1,14.6,26.6,14.6z"
	/>
<path class="st1" d="M21,16.1c-2.7,0-4.9,2.2-4.9,4.9c0,2.7,2.2,4.9,4.9,4.9c2.7,0,4.9-2.2,4.9-4.9C25.9,18.3,23.7,16.1,21,16.1z
	 M21,24.7c-2,0-3.7-1.6-3.7-3.7c0-2,1.6-3.7,3.7-3.7s3.7,1.6,3.7,3.7C24.7,23,23,24.7,21,24.7z"/>
</svg>
