<?xml version="1.0" encoding="utf-8"?>
<!-- Generator: Adobe Illustrator 19.2.1, SVG Export Plug-In . SVG Version: 6.00 Build 0)  -->
<svg version="1.1" id="Layer_1" xmlns="http://www.w3.org/2000/svg" xmlns:xlink="http://www.w3.org/1999/xlink" x="0px" y="0px"
	 viewBox="0 0 108 108" style="enable-background:new 0 0 108 108;" xml:space="preserve">
<style type="text/css">
	.st0{fill-rule:evenodd;clip-rule:evenodd;fill:#2962ff;}
	.st1{fill-rule:evenodd;clip-rule:evenodd;fill:none;stroke:#2962ff;stroke-width:2;stroke-miterlimit:10;}
</style>
<g>
	<g>
		<path class="st0" d="M78.5,36.5c0-4.1-3.3-7.5-7.3-7.5c-2,0-3.9,0.9-5.2,2.3c-1.4-1.5-3.3-2.3-5.2-2.3c-4,0-7.3,3.4-7.3,7.5
			c0,2.6,1.3,4.9,3.4,6.3L58,44L43.9,58.6l-2.7-2.7c-0.3-0.3-0.8-0.3-1.1,0l-3.2,3.3c-0.3,0.3-0.3,0.9,0,1.2l2.7,2.7l-1.3,1.3
			l-2.7-2.7c-0.3-0.3-0.8-0.3-1.1,0l-3.3,3.4c-0.3,0.3-0.3,0.9,0,1.2l2.7,2.7l-3,3.1c-0.3,0.3-0.3,0.9,0,1.2l5.2,5.4
			c0.2,0.2,0.4,0.2,0.6,0.2c0.2,0,0.4-0.1,0.6-0.2l5.1-5.3l2.7,2.7c0.3,0.3,0.8,0.3,1.1,0l4-4.2c0.3-0.3,0.3-0.9,0-1.2l-2.7-2.7
			l17-17.5l0.7,0.8c1.3,2.2,3.6,3.5,6.1,3.5c4,0,7.3-3.4,7.3-7.5c0-2-0.8-4-2.2-5.4C77.7,40.5,78.5,38.5,78.5,36.5z M76.9,47.3
			c0,3.2-2.5,5.8-5.6,5.8c-2,0-3.8-1-4.8-2.8c0-0.1-0.1-0.1-0.1-0.2L65,48.8c-0.3-0.3-0.8-0.3-1.1,0L45.7,67.5
			c-0.3,0.3-0.3,0.9,0,1.2l2.7,2.7l-2.9,3l-2.7-2.7c-0.3-0.3-0.8-0.3-1.1,0L36.5,77l-4.1-4.2l3-3.1c0.3-0.3,0.3-0.9,0-1.2l-2.7-2.7
			l2.2-2.3l2.7,2.7c0.3,0.3,0.8,0.3,1.1,0l2.4-2.5c0.3-0.3,0.3-0.9,0-1.2l-2.7-2.7l2.1-2.2l2.7,2.7c0.3,0.3,0.8,0.3,1.1,0l15.3-15.8
			c0.3-0.3,0.3-0.9,0-1.2L58,41.6c0,0-0.1-0.1-0.1-0.1c-1.7-1.1-2.7-2.9-2.7-4.9c0-3.2,2.5-5.8,5.6-5.8c1.8,0,3.5,0.9,4.6,2.4
			c0.3,0.4,1,0.4,1.3,0c1.1-1.5,2.8-2.4,4.6-2.4c3.1,0,5.6,2.6,5.6,5.8c0,1.9-0.9,3.6-2.4,4.7c-0.2,0.2-0.3,0.4-0.3,0.7
			c0,0.3,0.1,0.5,0.3,0.7C76,43.7,76.9,45.4,76.9,47.3z M49.7,59.2l1.1,1.2L63,47.9l-1.1-1.2L49.7,59.2z M46.5,62.5l1.1,1.2l1.6-1.7
			l-1.1-1.2L46.5,62.5z M71.2,33.2c-1.8,0-3.2,1.5-3.2,3.3c0,1.8,1.4,3.3,3.2,3.3c1.8,0,3.2-1.5,3.2-3.3
			C74.5,34.7,73,33.2,71.2,33.2z M71.2,38.2c-0.9,0-1.6-0.7-1.6-1.7c0-0.9,0.7-1.7,1.6-1.7c0.9,0,1.6,0.7,1.6,1.7
			C72.9,37.4,72.1,38.2,71.2,38.2z M61,39.6l1.6,1.7l1.1-1.2l-1.6-1.7L61,39.6z M64.2,42.9l1.6,1.7l1.1-1.2l-1.6-1.7L64.2,42.9z
			 M67.5,46.2l1.6,1.7l1.1-1.2l-1.6-1.7L67.5,46.2z M77.7,64.8h-1.4c0-0.1-0.1-0.2-0.1-0.3l1-1c0.3-0.3,0.3-0.9,0-1.2l-3.4-3.5
			c-0.3-0.3-0.8-0.3-1.1,0l-1,1c-0.1-0.1-0.2-0.1-0.3-0.1v-1.5c0-0.5-0.4-0.8-0.8-0.8h-4.8c-0.4,0-0.8,0.4-0.8,0.8v1.5
			c-0.1,0-0.2,0.1-0.3,0.1l-1-1c-0.3-0.3-0.8-0.3-1.1,0l-3.4,3.5c-0.3,0.3-0.3,0.9,0,1.2l1,1c0,0.1-0.1,0.2-0.1,0.3h-1.4
			c-0.4,0-0.8,0.4-0.8,0.8v5c0,0.5,0.4,0.8,0.8,0.8h1.4c0,0.1,0.1,0.2,0.1,0.3l-1,1c-0.3,0.3-0.3,0.9,0,1.2l3.4,3.5
			c0.3,0.3,0.8,0.3,1.1,0l1-1c0.1,0.1,0.2,0.1,0.3,0.1v1.5c0,0.5,0.4,0.8,0.8,0.8h4.8c0.4,0,0.8-0.4,0.8-0.8v-1.5
			c0.1,0,0.2-0.1,0.3-0.1l1,1c0.3,0.3,0.8,0.3,1.1,0l3.4-3.5c0.3-0.3,0.3-0.9,0-1.2l-1-1c0.1-0.1,0.1-0.2,0.1-0.3h1.4
			c0.4,0,0.8-0.4,0.8-0.8v-5C78.5,65.2,78.1,64.8,77.7,64.8z M76.9,69.8h-1.2c-0.4,0-0.7,0.2-0.8,0.6c-0.1,0.4-0.3,0.8-0.5,1.2
			c-0.2,0.3-0.1,0.7,0.1,1l0.8,0.9l-2.3,2.4l-0.8-0.9c-0.2-0.3-0.6-0.3-0.9-0.1c-0.4,0.2-0.8,0.4-1.2,0.5c-0.3,0.1-0.6,0.4-0.6,0.8
			v1.2h-3.2v-1.2c0-0.4-0.2-0.7-0.6-0.8c-0.4-0.1-0.8-0.3-1.2-0.5c-0.3-0.2-0.7-0.1-0.9,0.1l-0.8,0.9l-2.3-2.4l0.8-0.9
			c0.2-0.3,0.3-0.7,0.1-1c-0.2-0.4-0.4-0.8-0.5-1.2c-0.1-0.3-0.4-0.6-0.8-0.6h-1.2v-3.3h1.2c0.4,0,0.7-0.2,0.8-0.6
			c0.1-0.4,0.3-0.8,0.5-1.2c0.2-0.3,0.1-0.7-0.1-1l-0.8-0.9l2.3-2.4l0.8,0.9c0.2,0.3,0.6,0.3,0.9,0.2c0.4-0.2,0.8-0.4,1.2-0.5
			c0.3-0.1,0.6-0.4,0.6-0.8V59h3.2v1.2c0,0.4,0.2,0.7,0.6,0.8c0.4,0.1,0.8,0.3,1.2,0.5c0.3,0.2,0.7,0.1,0.9-0.1l0.8-0.9l2.3,2.4
			l-0.8,0.9c-0.2,0.3-0.3,0.7-0.1,1c0.2,0.4,0.4,0.8,0.5,1.2c0.1,0.3,0.4,0.6,0.8,0.6h1.2V69.8z M68,63.1c-2.7,0-4.8,2.2-4.8,5
			c0,2.8,2.2,5,4.8,5c2.7,0,4.8-2.2,4.8-5C72.9,65.4,70.7,63.1,68,63.1z M68,71.4c-1.8,0-3.2-1.5-3.2-3.3c0-1.8,1.4-3.3,3.2-3.3
			c1.8,0,3.2,1.5,3.2,3.3C71.2,69.9,69.8,71.4,68,71.4z M34.2,53.1h1.6c0-1.4,1.1-2.5,2.4-2.5V49c-1.3,0-2.4-1.1-2.4-2.5h-1.6
			c0,1.4-1.1,2.5-2.4,2.5v1.7C33.1,50.6,34.2,51.8,34.2,53.1z M35,48.9c0.2,0.3,0.5,0.6,0.8,0.9c-0.3,0.2-0.6,0.5-0.8,0.9
			c-0.2-0.3-0.5-0.6-0.8-0.9C34.5,49.6,34.8,49.3,35,48.9z M43.9,48.1h1.6c0-1.4,1.1-2.5,2.4-2.5V44c-1.3,0-2.4-1.1-2.4-2.5h-1.6
			c0,1.4-1.1,2.5-2.4,2.5v1.7C42.8,45.6,43.9,46.8,43.9,48.1z M44.7,44c0.2,0.3,0.5,0.6,0.8,0.9c-0.3,0.2-0.6,0.5-0.8,0.9
			c-0.2-0.3-0.5-0.6-0.8-0.9C44.2,44.6,44.4,44.3,44.7,44z M35.8,40.6h1.6c0-1.4,1.1-2.5,2.4-2.5v-1.7c-1.3,0-2.4-1.1-2.4-2.5h-1.6
			c0,1.4-1.1,2.5-2.4,2.5v1.7C34.7,38.2,35.8,39.3,35.8,40.6z M36.6,36.5c0.2,0.3,0.5,0.6,0.8,0.9c-0.3,0.2-0.6,0.5-0.8,0.9
			c-0.2-0.3-0.5-0.6-0.8-0.9C36.1,37.1,36.4,36.8,36.6,36.5z"/>
	</g>
</g>
<path class="st1" d="M54.5,7c26,0,47,21,47,47s-21,47-47,47c-26,0-47-21-47-47S28.5,7,54.5,7z"/>
</svg>
