<?xml version="1.0" encoding="utf-8"?>
<!-- Generator: Adobe Illustrator 19.2.1, SVG Export Plug-In . SVG Version: 6.00 Build 0)  -->
<svg version="1.1" id="Layer_1" xmlns="http://www.w3.org/2000/svg" xmlns:xlink="http://www.w3.org/1999/xlink" x="0px" y="0px"
	 viewBox="0 0 80 80" style="enable-background:new 0 0 80 80;" xml:space="preserve">
<style type="text/css">
	.st0{fill-rule:evenodd;clip-rule:evenodd;fill:#FBB722;}
	.st1{fill-rule:evenodd;clip-rule:evenodd;fill:none;stroke:#FBB722;stroke-miterlimit:10;}
</style>
<g>
	<g>
		<path class="st0" d="M36.8,43.3c-2.2,0-4,1.8-4,4c0,1.6,0.9,3.1,2.4,3.7l0.5-1.2c-1.4-0.6-2-2.2-1.4-3.5c0.4-1,1.4-1.6,2.4-1.6
			c0.4,0,0.7,0.1,1.1,0.2c0.3,0.1,0.7,0,0.9-0.3c0-0.1,0.1-0.2,0.1-0.3v-4.9h3.4c0,0.2-0.1,0.4-0.1,0.7c0,1.9,1.3,3.6,3.2,4l0.3-1.3
			c-1.2-0.3-2.1-1.4-2.1-2.6c0-0.4,0.1-0.7,0.2-1.1c0.1-0.3,0-0.7-0.3-0.9c-0.1,0-0.2-0.1-0.3-0.1h-4.3v-3.4c0.2,0,0.4,0.1,0.7,0.1
			c2.2,0,4-1.8,4-4c0-2.2-1.8-4-4-4c-0.2,0-0.4,0-0.7,0.1v-3.4h11.3c1.8,0,3.3,1.5,3.3,3.4v11.4h-4.3c-0.4,0-0.7,0.3-0.7,0.7
			c0,0.1,0,0.2,0.1,0.3c0.1,0.3,0.2,0.7,0.2,1.1h1.3c0-0.2,0-0.5-0.1-0.7h4.1c0.4,0,0.7-0.3,0.7-0.7V26.5c0-2.6-2.1-4.7-4.7-4.7h-24
			c-2.6,0-4.7,2.1-4.7,4.7v24.2c0,2.6,2.1,4.7,4.7,4.7h7.3V54h-7.3c-1.8,0-3.3-1.5-3.3-3.4V39.3h4.3c0.4,0,0.7-0.4,0.7-0.8
			c0-0.1,0-0.2-0.1-0.2c-0.6-1.4,0-2.9,1.4-3.5c1.3-0.6,2.9,0,3.5,1.4c0.3,0.7,0.3,1.5,0,2.2c-0.2,0.3,0,0.8,0.3,0.9
			c0.1,0,0.2,0.1,0.3,0.1h4.3v4C37.3,43.3,37.1,43.3,36.8,43.3z M34.1,37.9c0-0.2,0.1-0.4,0.1-0.6v-0.1c0-2.2-1.8-4-4-4
			c-2.2,0-4,1.8-4,4v0.1c0,0.2,0,0.4,0.1,0.6h-3.4V26.5c0-1.9,1.5-3.4,3.3-3.4h11.3v4.3c0,0.4,0.3,0.7,0.7,0.7c0.1,0,0.2,0,0.3-0.1
			c0.3-0.2,0.7-0.2,1.1-0.2c1.5,0,2.7,1.2,2.7,2.7c0,1.5-1.2,2.7-2.7,2.7c-0.4,0-0.7-0.1-1.1-0.2c-0.3-0.1-0.7,0-0.9,0.3
			c0,0.1-0.1,0.2-0.1,0.3v4.3H34.1z M60.1,50.7l-5.6-3.9L52.3,41c-0.1-0.3-0.5-0.5-0.9-0.4c0,0,0,0,0,0l-4.3,1.9
			c-0.3,0.1-0.5,0.5-0.4,0.9c0.1,0.2,0.1,0.3,0.2,0.5c0.1,0.1,0.1,0.3,0.2,0.5c0.5,1.4-0.2,3-1.6,3.5c-1.4,0.5-2.9-0.2-3.4-1.6
			C42,46,42,45.6,42,45.2c0-0.4-0.3-0.7-0.6-0.7c-0.1,0-0.2,0-0.3,0l-4.6,1.8c-0.3,0.1-0.5,0.5-0.4,0.9l1.7,4.5
			c-0.2,0-0.4,0.1-0.6,0.2C35,52.6,34,55,34.7,57.1c0.8,2.1,3.1,3.2,5.2,2.4c0.2-0.1,0.4-0.2,0.6-0.3l1.2,3.2
			c0.1,0.3,0.5,0.5,0.9,0.4c0,0,0,0,0,0l6.6-2.5c0.4,0.9,1.2,1.6,2.1,1.9l0.4-1.3c-0.5-0.2-1-0.6-1.3-1.1l2-0.8
			c0.7,1.9,2.4,3.1,4.4,3.1v-1.3c-1.8,0-3.3-1.5-3.3-3.4c0-0.2-0.1-0.3-0.2-0.5L51,54.6c-0.3-0.4-0.4-0.9-0.1-1.3
			c0.2-0.2,0.4-0.4,0.7-0.4c0.3,0,0.6,0.1,0.8,0.3l4.7,4.7l0.9-1l-1.4-1.4c0.3-1,0.3-2.1-0.1-3.1L55.3,49l4,2.8
			c0.5,0.4,0.9,1,0.9,1.7v8.7h1.3v-8.7C61.5,52.4,61,51.3,60.1,50.7z M55.3,52.9c0.2,0.5,0.3,1,0.2,1.6l-2.2-2.2
			c-0.9-0.9-2.4-0.9-3.3,0c-0.9,0.9-0.9,2.4,0,3.3c0,0,0,0,0,0l2.1,2.1l-9.4,3.6l-1.3-3.4c-0.1-0.2-0.3-0.4-0.5-0.4c0,0-0.1,0-0.1,0
			c-0.2,0-0.3,0.1-0.5,0.2c-1.1,1-2.8,1-3.8-0.1c-1-1.1-1-2.8,0.1-3.8c0.3-0.2,0.5-0.4,0.9-0.6C37.8,53,38,53,38.2,53
			c0.1,0,0.3,0,0.4,0c0.4,0,0.7-0.3,0.7-0.6c0-0.1,0-0.2,0-0.3l-1.7-4.7l3.2-1.2c0.4,2.2,2.5,3.6,4.7,3.2c0.2,0,0.4-0.1,0.7-0.2
			c2.1-0.8,3.1-3.1,2.3-5.2c-0.1-0.2-0.1-0.3-0.2-0.4l3.1-1.4L55.3,52.9z"/>
	</g>
</g>
<path class="st1" d="M30.4,5.2c19.2-5.1,38.9,6.4,44,25.6c5.1,19.2-6.4,38.9-25.7,44c-19.2,5.1-38.9-6.4-44-25.6
	C-0.4,29.9,11.1,10.2,30.4,5.2z"/>
</svg>
