<?xml version="1.0" encoding="utf-8"?>
<!-- Generator: Adobe Illustrator 19.2.1, SVG Export Plug-In . SVG Version: 6.00 Build 0)  -->
<svg version="1.1" id="Layer_1" xmlns="http://www.w3.org/2000/svg" xmlns:xlink="http://www.w3.org/1999/xlink" x="0px" y="0px"
	 viewBox="0 0 120 120" style="enable-background:new 0 0 120 120;" xml:space="preserve">
<style type="text/css">
	.st0{fill-rule:evenodd;clip-rule:evenodd;fill:#01838F;}
	.st1{fill-rule:evenodd;clip-rule:evenodd;fill:none;stroke:#01838F;stroke-width:2;stroke-miterlimit:10;}
</style>
<g>
	<g>
		<path class="st0" d="M89.7,62.3L89.7,62.3c0.7-1,1.2-2.2,1.2-3.5v-2.3c0-3.2-2.6-5.8-5.8-5.8c-3.2,0-5.8,2.6-5.8,5.8v2.3
			c0,1.3,0.4,2.5,1.2,3.5c-1.9,0-3.7,1-4.8,2.7l-3.2,5.6L70,65.4c0,0,0-0.1-0.1-0.1c-1-1.7-2.8-2.8-4.8-2.9c0.8-1,1.2-2.2,1.2-3.5
			v-2.3c0-3.2-2.6-5.8-5.8-5.8c-3.2,0-5.8,2.6-5.8,5.8v2.3c0,1.3,0.4,2.5,1.2,3.5c-1.9,0-3.7,1-4.7,2.6c0,0.1-0.1,0.1-0.1,0.2
			l-2.5,5.5l-3.2-5.6c-1.1-1.6-2.8-2.6-4.7-2.6c0.8-1,1.2-2.2,1.2-3.5v-2.3c0-3.2-2.6-5.8-5.8-5.8c-3.2,0-5.8,2.6-5.8,5.8v2.3
			c0,1.3,0.4,2.5,1.2,3.5h0c-3.2,0-5.8,2.6-5.8,5.8v9.3c0,0.6,0.5,1.2,1.2,1.2h3.5v15.2c0,0.6,0.5,1.2,1.2,1.2h9.3
			c0.6,0,1.2-0.5,1.2-1.2V72.2l3.7,5.9c0.2,0.3,0.6,0.5,1,0.5h4.7c0.4,0,0.8-0.2,1-0.6c0,0,0,0,0,0c0,0,0,0,0,0l2.5-4.9v20.7
			c0,0.6,0.5,1.2,1.2,1.2h9.3c0.6,0,1.2-0.5,1.2-1.2V73.1l2.4,4.9c0,0,0,0,0,0c0,0,0,0,0,0c0,0,0.1,0.1,0.1,0.1c0,0,0.1,0.1,0.1,0.1
			c0,0,0.1,0.1,0.1,0.1c0.1,0.1,0.2,0.1,0.3,0.2c0,0,0.1,0,0.1,0c0.1,0,0.2,0,0.3,0h4.7c0.4,0,0.8-0.2,1-0.5l3.7-5.9v21.6
			c0,0.6,0.5,1.2,1.2,1.2h9.3c0.6,0,1.2-0.5,1.2-1.2V78.7h3.5c0.6,0,1.2-0.5,1.2-1.2v-9.3C95.5,64.9,92.9,62.3,89.7,62.3z
			 M81.5,56.5c0-1.9,1.6-3.5,3.5-3.5c1.9,0,3.5,1.6,3.5,3.5v2.3c0,1.9-1.6,3.5-3.5,3.5c-1.9,0-3.5-1.6-3.5-3.5V56.5z M57,56.5
			c0-1.9,1.6-3.5,3.5-3.5s3.5,1.6,3.5,3.5v2.3c0,1.9-1.6,3.5-3.5,3.5S57,60.8,57,58.8V56.5z M32.5,56.5c0-1.9,1.6-3.5,3.5-3.5
			c1.9,0,3.5,1.6,3.5,3.5v2.3c0,1.9-1.6,3.5-3.5,3.5c-1.9,0-3.5-1.6-3.5-3.5V56.5z M39.5,92.7h-2.3V81h-2.3v11.7h-2.3v-14h7V92.7z
			 M47.1,76.3l-5.5-8.8c-0.3-0.5-1.1-0.7-1.6-0.4c-0.3,0.2-0.5,0.6-0.5,1v8.2h-7v-8.2h-2.3v8.2h-2.3v-8.2c0-1.9,1.6-3.5,3.5-3.5h3.5
			V74h2.3v-9.3h3.2c0.1,0,0.1,0,0.2,0h0.2c1.1,0.1,2,0.6,2.6,1.5l5.8,10.2H47.1z M64,92.7h-2.3V81h-2.3v11.7H57v-14h7V92.7z
			 M69.8,74.9l-3.6-7.2c-0.3-0.6-1-0.8-1.6-0.5c-0.4,0.2-0.7,0.6-0.7,1.1v8.2h-7v-8.2c0-0.6-0.5-1.2-1.2-1.2c-0.4,0-0.8,0.3-1,0.6
			l-3.6,7.2l-1-2.1l3-6.7c0.7-0.9,1.7-1.5,2.9-1.5h3.3V74h2.3v-9.3h3.2c1.3,0,2.4,0.7,3.1,1.8l2.9,6.4L69.8,74.9z M88.5,92.7h-2.3
			V81h-2.3v11.7h-2.3v-14h7V92.7z M93.2,76.3h-2.3v-8.2h-2.3v8.2h-7v-8.2c0-0.6-0.5-1.2-1.2-1.2c-0.4,0-0.8,0.2-1,0.5l-5.5,8.8h-2
			l5.7-10.1c0.6-0.9,1.6-1.5,2.7-1.6h0.2c0.1,0,0.1,0,0.2,0h3.2V74h2.3v-9.3h3.5c1.9,0,3.5,1.6,3.5,3.5V76.3z M60.5,25
			c-19.3,0-35,15.7-35,35v1.2h2.3V60c0-4.8,1.1-9.6,3.2-14h10.7c-0.4,1.5-0.7,3-0.9,4.5l2.3,0.4c0.3-1.6,0.6-3.3,1-4.8h15.2v2.3h2.3
			V46H77c0.4,1.6,0.8,3.2,1,4.8l2.3-0.4c-0.2-1.5-0.6-3-0.9-4.5H90c2.1,4.4,3.2,9.2,3.2,14v1.2h2.3V60C95.5,40.7,79.8,25,60.5,25z
			 M49.4,29.3c-0.9,1.3-1.7,2.6-2.5,3.9h-5C44.2,31.5,46.8,30.2,49.4,29.3z M42.3,43.7H32.2c1.8-3.1,4-5.8,6.7-8.2h6.7
			C44.3,38.1,43.2,40.9,42.3,43.7z M59.3,43.7H44.8c0.9-2.8,2.1-5.6,3.5-8.2h11.1V43.7z M59.3,33.2h-9.7c0.9-1.5,1.9-2.9,3-4.3
			l0.6-0.7c2-0.5,4.1-0.7,6.2-0.8V33.2z M79.1,33.2h-4.9c-0.8-1.3-1.6-2.6-2.5-3.9C74.3,30.3,76.8,31.6,79.1,33.2z M61.7,27.4
			c2.1,0.1,4.2,0.4,6.2,0.8l0.5,0.7c1.1,1.4,2.1,2.8,3,4.3h-9.8V27.4z M61.7,43.7v-8.2h11.1c1.4,2.6,2.6,5.3,3.5,8.2H61.7z
			 M78.7,43.7c-0.9-2.8-2-5.5-3.3-8.2h6.6c2.7,2.3,4.9,5.1,6.7,8.2H78.7z M46.5,56.5h-2.3v2.3h2.3V56.5z M51.2,56.5h-2.3v2.3h2.3
			V56.5z M72.2,56.5h-2.3v2.3h2.3V56.5z M76.8,56.5h-2.3v2.3h2.3V56.5z"/>
	</g>
</g>
<path class="st1" d="M60.5,6c29.8,0,54,24.2,54,54s-24.2,54-54,54c-29.8,0-54-24.2-54-54S30.7,6,60.5,6z"/>
</svg>
