<?xml version="1.0" encoding="utf-8"?>
<!-- Generator: Adobe Illustrator 19.2.1, SVG Export Plug-In . SVG Version: 6.00 Build 0)  -->
<svg version="1.1" id="Layer_1" xmlns="http://www.w3.org/2000/svg" xmlns:xlink="http://www.w3.org/1999/xlink" x="0px" y="0px"
	 viewBox="0 0 20 32" style="enable-background:new 0 0 20 32;" xml:space="preserve">
<style type="text/css">
	.st0{fill:#F04D2A;}
</style>
<path class="st0" d="M19.7,29.5c0.1-0.3,0.2-0.6,0.3-0.9c0.3-1.8-0.5-4.5-5.9-7.5c-0.2-0.1-0.4-0.1-0.6,0l-1.8,1
	c-0.4,0-2.4-0.2-4.6-4.4c-1.8-4.5-0.8-6.2-0.5-6.5l1.9-0.8c0.2-0.1,0.4-0.3,0.4-0.5c1.2-6.1-0.4-8.5-2-9.4C6.1,0.2,5.4,0,4.7,0
	c-1.6-0.1-3,0.9-3.6,2.4C0,5.2-1.3,11.3,2.6,19.7c4,8.4,9.5,11.2,12.4,12.1c0.4,0.1,0.8,0.2,1.2,0.2c0.9,0,1.8-0.4,2.4-1
	c0,0,0.1,0,0.1,0C18.8,31,19.6,29.6,19.7,29.5z M18.6,28.3c-0.3,1.2-1.3,2.1-2.5,2.2c-0.3,0-0.5,0-0.7-0.1
	C12.7,29.6,7.6,27,3.9,19.1C0.1,11.2,1.4,5.5,2.4,2.9c0.4-1,1.3-1.6,2.3-1.5c0.5,0,0.9,0.1,1.3,0.3c1.6,0.9,2.1,3.6,1.4,7.5L5.8,9.9
	c-0.1,0-0.1,0.1-0.2,0.1c-0.2,0.2-2.3,2.1,0.1,8.2c2.4,4.8,4.9,5.3,5.8,5.3c0.1,0,0.3,0,0.4,0c0.1,0,0.1,0,0.2-0.1l1.6-0.8
	C17.1,24.5,18.9,26.5,18.6,28.3z"/>
</svg>
