<?xml version="1.0" encoding="utf-8"?>
<!-- Generator: Adobe Illustrator 19.2.1, SVG Export Plug-In . SVG Version: 6.00 Build 0)  -->
<svg version="1.1" id="Layer_1" xmlns="http://www.w3.org/2000/svg" xmlns:xlink="http://www.w3.org/1999/xlink" x="0px" y="0px"
	 viewBox="0 0 100 100" style="enable-background:new 0 0 100 100;" xml:space="preserve">
<style type="text/css">
	.st0{fill-rule:evenodd;clip-rule:evenodd;fill:#F04D2A;}
	.st1{fill-rule:evenodd;clip-rule:evenodd;fill:none;stroke:#F04D2A;stroke-width:2;stroke-miterlimit:10;}
</style>
<g>
	<g>
		<path class="st0" d="M75.5,20L70,24.2l-5.6,13.2h-4.5l-1.8-3.9h1.1c2.1,0,3.8-1.7,3.8-3.9v-3.9H65V20h-5.7v5.8h1.9v3.9
			c0,1.1-0.9,1.9-1.9,1.9h-2l-2.4-5.4l2.9-1.5l-9.6-4.2l-2.2,8c-0.1-4.7-3.9-8.6-8.6-8.6c-4.7,0-8.6,3.9-8.6,8.7
			c0,2.9,1.4,5.6,3.8,7.2v1.5h-2.3l-0.1,0.8c-0.5,2.4-0.5,4.9-0.1,7.4l-6.5,11.8l7.2,1.7v12.2h9.5V80h22.9V66.5
			c6.7-4.8,10.5-12.5,10.5-20.7l0-3.5c0-1.3-0.1-2.7-0.4-4l-0.1-0.8h-1.9L75.5,27V20z M61.2,23.9V22h1.9v1.9H61.2z M57.8,37.4h-3.6
			l-1.7-3.9H56L57.8,37.4z M49.4,23.3l3.8,1.6l-0.9,0.4l2.8,6.2h-3.6l-2.3-5.2l-0.9,0.4L49.4,23.3z M52.1,37.4h-4.2v-1.9
			c0-1.1,0.9-2,1.9-2h0.6L52.1,37.4z M48.3,29.1l1.2,2.6c-2,0.1-3.6,1.8-3.6,3.8v1.9h-3.8V36c1.9-1.3,3.2-3.3,3.6-5.6L48.3,29.1z
			 M30.7,28.7c0-3.7,3-6.8,6.7-6.8c3.7,0,6.7,3,6.7,6.8c0,2.4-1.3,4.7-3.3,5.9l-0.5,0.3v2.6h-1.9v-6c1.1-0.4,1.9-1.5,1.9-2.7
			c0-1.6-1.3-2.9-2.9-2.9c-1.6,0-2.9,1.3-2.9,2.9c0,1.3,0.8,2.3,1.9,2.7v6h-1.9v-2.6L34,34.6C32,33.4,30.7,31.1,30.7,28.7z
			 M37.4,29.7c-0.5,0-1-0.4-1-1c0-0.5,0.4-1,1-1c0.5,0,1,0.4,1,1C38.3,29.3,37.9,29.7,37.4,29.7z M71.5,39.4c0.1,1,0.2,1.9,0.2,2.9
			l0,3.5c0,7.8-3.8,15-10.1,19.4l-0.4,0.3v12.6H42.1v-8.7h-9.5V57.5l-6.2-1.4L32,46l-0.1-0.3c-0.4-2.1-0.4-4.4-0.1-6.3H71.5z
			 M69.1,37.4h-2.7l4.8-11.2l2.1,1.1L69.1,37.4z M73.6,25.2l-1.1-0.5l1.1-0.8V25.2z M39.3,47.1c2.6,0,4.8-1.9,4.8-4.8h-1.9
			c0,1.9-1.3,2.9-2.9,2.9c-1.6,0-2.9-1-2.9-2.9h-1.9C34.5,45.2,36.6,47.1,39.3,47.1z"/>
	</g>
</g>
<path class="st1" d="M49.5,3c26,0,47,21,47,47s-21,47-47,47s-47-21-47-47S23.5,3,49.5,3z"/>
</svg>
