<?xml version="1.0" encoding="utf-8"?>
<!-- Generator: Adobe Illustrator 19.2.1, SVG Export Plug-In . SVG Version: 6.00 Build 0)  -->
<svg version="1.1" id="Layer_1" xmlns="http://www.w3.org/2000/svg" xmlns:xlink="http://www.w3.org/1999/xlink" x="0px" y="0px"
	 viewBox="0 0 60 60" style="enable-background:new 0 0 60 60;" xml:space="preserve">
<style type="text/css">
	.st0{fill:#2962ff;}
</style>
<g>
	<g>
		<path class="st0" d="M6.5,49.5c0.1,0,0.1,0,0.2,0c0.4,0,0.8-0.3,0.9-0.7c0-0.1,1.1-5.4,4.8-10.3c0.6,0.6,1.5,0.9,2.4,0.9
			c0.9,0,1.7-0.3,2.3-0.8c0.4,0.8,0.6,1.5,0.9,2.1c0.6,1.6,1.1,3.2,3.1,4.9c0,0.1,0,0.2,0,0.3c0,2,1.6,3.6,3.6,3.6s3.6-1.6,3.6-3.6
			c0-0.4-0.1-0.7-0.2-1.1c1.5-2.4,1.9-5.9,2.2-9.3c0.3-3,0.6-6.1,1.7-8.1c0.6,0.6,1.5,1,2.5,1c1,0,1.9-0.4,2.5-1.1
			c0.8,1.2,1,2.7,1.3,4.1c0.3,1.8,0.6,3.6,1.8,5.3c-0.1,0.3-0.1,0.6-0.1,0.8c0,2,1.6,3.6,3.6,3.6c2,0,3.6-1.6,3.6-3.6
			c0-0.4-0.1-0.7-0.2-1.1c1.4-2,1.7-5.1,2.1-8.1c0.6-4.9,1.1-7.9,3.9-7.9c0.5,0,0.9-0.4,0.9-0.9c0-0.5-0.4-0.9-0.9-0.9
			c-2.1,0-3.5,1.1-4.4,3.2c-0.7,1.7-1,3.9-1.2,6.2c-0.3,2.4-0.6,4.9-1.4,6.6c-0.6-0.5-1.4-0.9-2.3-0.9c-1,0-1.9,0.4-2.5,1
			c-0.7-1.2-0.9-2.5-1.1-3.9c-0.3-1.9-0.6-3.8-2.1-5.5c0.1-0.3,0.1-0.5,0.1-0.8c0-2-1.6-3.6-3.6-3.6S30.8,23,30.8,25
			c0,0.3,0,0.6,0.1,0.8c-1.8,2.3-2.2,6.1-2.5,9.7c-0.3,2.8-0.6,5.7-1.5,7.8c-0.6-0.5-1.4-0.9-2.3-0.9c-1.2,0-2.2,0.6-2.9,1.5
			c-1.3-1.3-1.7-2.4-2.2-3.8c-0.3-0.9-0.7-2-1.4-3.2c0.1-0.4,0.2-0.7,0.2-1.1c0-2-1.6-3.6-3.6-3.6s-3.6,1.6-3.6,3.6
			c0,0.4,0.1,0.8,0.2,1.1C7,42.4,5.8,48.2,5.8,48.5C5.7,49,6,49.4,6.5,49.5z M43.5,35.9c1,0,1.8,0.8,1.8,1.8s-0.8,1.8-1.8,1.8
			s-1.8-0.8-1.8-1.8C41.6,36.8,42.5,35.9,43.5,35.9z M34.4,23.2c1,0,1.8,0.8,1.8,1.8s-0.8,1.8-1.8,1.8c-1,0-1.8-0.8-1.8-1.8
			C32.5,24,33.4,23.2,34.4,23.2z M24.5,44.2c1,0,1.8,0.8,1.8,1.8c0,1-0.8,1.8-1.8,1.8c-1,0-1.8-0.8-1.8-1.8
			C22.7,45,23.5,44.2,24.5,44.2z M14.7,34c1,0,1.8,0.8,1.8,1.8c0,1-0.8,1.8-1.8,1.8c-0.6,0-1.2-0.3-1.5-0.8c0-0.1-0.1-0.2-0.2-0.3
			c-0.1-0.2-0.1-0.4-0.1-0.7C12.9,34.8,13.7,34,14.7,34z M59.1,43.7c-0.5,0-0.9,0.4-0.9,0.9v6.8c0,0.5-0.4,0.9-0.9,0.9H2.6
			c-0.5,0-0.9-0.4-0.9-0.9V26.3c0-0.5-0.4-0.9-0.9-0.9c-0.5,0-0.9,0.4-0.9,0.9v25.1C0,52.8,1.2,54,2.6,54h54.7
			c1.5,0,2.6-1.2,2.6-2.6v-6.8C60,44.1,59.6,43.7,59.1,43.7z M4.7,11.2c0,0.8,0.7,1.5,1.5,1.5s1.5-0.7,1.5-1.5
			c0-0.8-0.7-1.5-1.5-1.5C5.4,9.7,4.7,10.4,4.7,11.2z M9.1,11.2c0,0.8,0.7,1.5,1.5,1.5s1.5-0.7,1.5-1.5c0-0.8-0.7-1.5-1.5-1.5
			S9.1,10.4,9.1,11.2z M13.6,11.2c0,0.8,0.7,1.5,1.5,1.5c0.8,0,1.5-0.7,1.5-1.5c0-0.8-0.7-1.5-1.5-1.5C14.2,9.7,13.6,10.4,13.6,11.2
			z M57.4,6H2.6C1.2,6,0,7.2,0,8.6v14.1c0,0.5,0.4,0.9,0.9,0.9c0.5,0,0.9-0.4,0.9-0.9v-6.2h39.3c0.5,0,0.9-0.4,0.9-0.9
			c0-0.5-0.4-0.9-0.9-0.9H1.8V8.6c0-0.5,0.4-0.9,0.9-0.9h54.7c0.5,0,0.9,0.4,0.9,0.9v6.1H44.6c-0.5,0-0.9,0.4-0.9,0.9
			c0,0.5,0.4,0.9,0.9,0.9h13.6V41c0,0.5,0.4,0.9,0.9,0.9c0.5,0,0.9-0.4,0.9-0.9V8.6C60,7.2,58.8,6,57.4,6z"/>
	</g>
</g>
</svg>
