<?xml version="1.0" encoding="utf-8"?>
<!-- Generator: Adobe Illustrator 19.2.1, SVG Export Plug-In . SVG Version: 6.00 Build 0)  -->
<svg version="1.1" id="Layer_1" xmlns="http://www.w3.org/2000/svg" xmlns:xlink="http://www.w3.org/1999/xlink" x="0px" y="0px"
	 viewBox="0 0 60 60" style="enable-background:new 0 0 60 60;" xml:space="preserve">
<style type="text/css">
	.st0{fill:#EF4323;}
</style>
<g>
	<g>
		<path class="st0" d="M56.1,9.9V3.1l2.3,1.7l1.2-1.5L55.2,0l-4.4,3.3l1.2,1.5l2.3-1.7v6.7c0,2.7-2.2,4.8-4.8,4.8h-3.9
			c-3,0-5.6,1.9-6.5,4.8h-1.4l0,1.9h1.1v3c-0.5-0.1-1-0.1-1.4-0.1c-2.2,0-4.4,0.7-6.2,2.1c-1.3-1.3-3-2.1-4.9-2.1
			c-0.7,0-1.3,0.1-1.9,0.3v-6.1c0-3.2-2.6-5.8-5.8-5.8h-1v-1.9h-1.9v1.9h-2.9c-3.2,0-5.8,2.6-5.8,5.8v1.9c0,1.1-0.9,1.9-1.9,1.9H3.1
			l1.7-2.3l-1.5-1.2L0,23.4l3.3,4.4l1.5-1.2l-1.7-2.3h1.9c2.1,0,3.9-1.7,3.9-3.9v-1.9c0-2.1,1.7-3.9,3.9-3.9h5.8
			c2.1,0,3.9,1.7,3.9,3.9v7c-0.4,0.3-0.8,0.6-1.2,1c-0.7-0.2-1.5-0.3-2.2-0.3c-4.1,0-7.6,3.1-8.1,7.1c-3.4,1-5.9,4.2-5.9,7.9
			c0,1.7,0.5,3.4,1.5,4.8c-0.4,0.9-0.6,1.9-0.6,3c0,4.5,3.7,8.2,8.2,8.2c0.4,0,0.7,0,1.1-0.1c0.1,0,0.1,0,0.2,0
			c0.4-0.1,0.7-0.1,1-0.2c1.3,0.9,2.8,1.3,4.4,1.3c1.8,0,3.4-0.6,4.8-1.6c1.5,2.2,4,3.5,6.7,3.5c2.5,0,4.9-1.1,6.4-3.1
			c1.3,0.8,2.7,1.2,4.2,1.2c4.5,0,8.2-3.7,8.2-8.2c0-1-0.2-1.9-0.5-2.8c1.6-1.5,2.4-3.6,2.4-5.8c0-0.5,0-1-0.1-1.4h0.1v-1.9h-0.7
			c-1-2.1-2.8-3.8-5.1-4.5c-0.4-4-3.1-7.2-6.7-8.4v-3.5c0-2.7,2.2-4.8,4.8-4.8h3.9C53.1,16.6,56.1,13.6,56.1,9.9z M45.5,34.2l0,0.8
			l0.7,0.1c1.7,0.3,3.2,1.4,4.1,2.8v1.9h0.8c0.1,0.5,0.2,0.9,0.2,1.4c0,1.5-0.6,3-1.6,4.1c-1.4-1.9-3.6-3.1-6.1-3.2l-0.1,1.8
			c3.2,0.2,5.7,2.5,5.8,6.2c-0.1,3.4-2.9,6-6.3,6c-1.4,0-2.7-0.5-3.8-1.3l-0.4-0.3c-1.2-1.1-1.9-2.6-2-4.2L35,50.4
			c0.1,2,1,3.9,2.5,5.3c-1.2,1.5-3,2.3-4.9,2.3c-2.4,0-4.5-1.3-5.6-3.5l-0.6-1.2l-0.9,0.9c-1.2,1.2-2.7,1.8-4.4,1.8
			c-0.8,0-1.5-0.2-2.2-0.4c2.2-1.5,3.6-4,3.6-6.8c0-0.2,0-0.4,0-0.6c1.5-0.3,3-1,4.1-2l-1.3-1.4c-0.9,0.8-2,1.4-3.2,1.6
			c-0.6-2-2-3.7-4-4.8l-0.9,1.7c2.1,1.1,3.4,3.2,3.4,5.5c0,2.7-1.7,5-4.1,5.9c-0.3,0.1-0.7,0.2-1,0.3c0,0,0,0-0.1,0
			c-0.3,0.1-0.7,0.1-1,0.1c-3.5,0-6.3-2.8-6.3-6.3c0-0.9,0.2-1.8,0.6-2.7l0.3-0.6l-0.4-0.5c-0.9-1.1-1.4-2.5-1.4-4
			c0-3,2.1-5.6,5-6.1l0.7-0.1l0-0.8c0.1-2.1,1.2-3.9,2.9-5v1.9h1.9v-2.7c0.5-0.1,0.9-0.2,1.4-0.2c0.7,0,1.5,0.1,2.2,0.4l0.7,0.3
			l0.4-0.6c0,0,0,0,0-0.1V33h1.9v-6.3c0.6-0.3,1.3-0.4,1.9-0.4c1.3,0,2.6,0.6,3.5,1.5C28.1,29.6,27,32,27,34.5
			c0,5.6,5.1,10.1,9.9,10.1v-1.9c-3.9,0-8-3.7-8-8.2c0-2,0.9-4,2.2-5.4l0.6-0.5c1.5-1.5,3.6-2.3,5.7-2.3c0.5,0,1,0,1.5,0.1v3.7
			c0,2.7-2.2,4.8-4.8,4.8h-1v1.9h1c3.7,0,6.7-3,6.7-6.7V27C43.5,28.2,45.4,30.9,45.5,34.2z M47.5,37.8h-2.9v1.9h2.9V37.8z
			 M49.4,21.4h2.9v-1.9h-2.9V21.4z M34.4,20.5l1-1.7c-0.7-0.4-1.3-1-1.7-1.7l-1.6,1C32.7,19.2,33.5,20,34.4,20.5z M31.1,14.7
			c0,0.1,0,0.2,0,0.3l1.9-0.2l0-3h-1.9V14.7z M33,6h-1.9v2.9H33V6z M55.6,37.2l0.9,1.7c1-0.5,1.8-1.3,2.4-2.3l-1.6-1
			C56.9,36.3,56.3,36.9,55.6,37.2z M58.1,33c0,0.1,0,0.2,0,0.3l1.9,0.1c0-0.2,0-0.3,0-0.5v-2.9h-1.9V33z M43.6,21.4h2.9v-1.9h-2.9
			V21.4z M59.8,24.5L57.9,25c0.1,0.4,0.2,0.8,0.2,1.3v1H60v-1C60,25.7,59.9,25.1,59.8,24.5z M58.1,21.6c-0.8-0.8-1.8-1.4-2.8-1.8
			l-0.6,1.8c0.8,0.2,1.5,0.7,2,1.3L58.1,21.6z M31.1,3.1H33l2.3,1.7l1.2-1.5L32,0l-4.4,3.3l1.2,1.5L31.1,3.1z M15.7,8h1.9V5.1h-1.9
			V8z M15.7,25.3h1.9v-2.9h-1.9V25.3z M17.6,16.6h-1.9v2.9h1.9V16.6z M15.7,36.9h1.9V34h-1.9V36.9z M16.6,2.4l3.3,2.5l1.2-1.5
			L16.6,0l-4.4,3.3l1.2,1.5L16.6,2.4z"/>
	</g>
</g>
</svg>
