<?xml version="1.0" encoding="utf-8"?>
<!-- Generator: Adobe Illustrator 19.2.1, SVG Export Plug-In . SVG Version: 6.00 Build 0)  -->
<svg version="1.1" id="Layer_1" xmlns="http://www.w3.org/2000/svg" xmlns:xlink="http://www.w3.org/1999/xlink" x="0px" y="0px"
	 viewBox="0 0 60 60" style="enable-background:new 0 0 60 60;" xml:space="preserve">
<style type="text/css">
	.st0{fill:#52B848;}
</style>
<g>
	<g>
		<path class="st0" d="M30,26c3.3,0,6-2.7,6-6c0-3.3-2.7-6-6-6c-3.3,0-6,2.7-6,6C24,23.3,26.7,26,30,26z M30,16c2.2,0,4,1.8,4,4
			c0,2.2-1.8,4-4,4c-2.2,0-4-1.8-4-4C26,17.8,27.8,16,30,16z M18.4,45.7c0.3,0.4,0.6,0.7,0.9,1c0.2,0.2,0.4,0.3,0.7,0.3
			c0.1,0,0.2,0,0.3-0.1c0.4-0.1,0.6-0.4,0.7-0.8l0.8-5.3c0.1-0.5,0.5-0.9,1-0.9h3L25,43.8c-0.1,0.5,0.2,1.1,0.8,1.2
			c0.1,0,0.1,0,0.2,0h8c0.6,0,1-0.4,1-1c0-0.1,0-0.1,0-0.2L34.2,40h3c0.5,0,0.9,0.4,1,0.9l0.8,5.3c0.1,0.4,0.3,0.7,0.7,0.8
			c0.1,0,0.2,0.1,0.3,0.1c0.3,0,0.5-0.1,0.7-0.3c5-5,5-13.1,0-18.1c-0.3-0.3-0.7-0.6-1-0.9l0,0C43,17.5,39.3,6.4,30.6,0.2
			c-0.3-0.2-0.8-0.2-1.2,0C20.7,6.4,17,17.5,20.3,27.7l0,0C14.8,32.1,13.9,40.2,18.4,45.7z M27.2,43l0.6-3h4.4l0.6,3H27.2z
			 M42.4,36.8c0.2,2.4-0.4,4.8-1.7,6.8l-0.4-3c-0.2-1.5-1.5-2.6-3-2.6h-0.9l2.6-8.2C41,31.6,42.2,34.1,42.4,36.8z M30,2.2
			c2.4,1.8,4.4,4.1,5.9,6.8H24.1C25.6,6.4,27.6,4.1,30,2.2z M23.1,11h13.8c2.3,5.1,2.6,10.8,0.9,16.1l-0.2,0.7L34.3,38h-8.5
			l-3.3-10.2l-0.2-0.7C20.5,21.8,20.8,16.1,23.1,11z M21,29.8l2.6,8.2h-0.9c-1.5,0-2.8,1.1-3,2.6l-0.4,3c-1.3-2-2-4.4-1.7-6.8h0
			C17.8,34.1,19,31.6,21,29.8z M26,50.2c-2.4-0.7-5.1-0.1-6.9,1.7C17.6,50.1,15.4,49,13,49c-0.7,0-1.5,0.1-2.2,0.3
			C10,44.5,5.9,41,1,41H0v2h1c4.1,0,7.5,3.1,7.9,7.1c-1,0.6-1.8,1.3-2.5,2.2C4.7,50.8,2.4,50,0,50v2c4.4,0,8,3.6,8,8h2
			c0-2.2-0.7-4.4-2.1-6.1c0.6-1,1.5-1.8,2.5-2.3c0,0,0,0,0,0c0.8-0.4,1.7-0.6,2.6-0.6c1.9,0,3.8,1,4.9,2.5C17.3,54.6,17,55.8,17,57
			h2c0-1,0.3-2,0.8-2.9h0c0,0,0,0,0-0.1c1.4-2,3.9-2.7,6.1-1.8v2.6h2v-8h-2V50.2z M49.2,49.3C48.5,49.1,47.7,49,47,49
			c-2.4,0-4.6,1.1-6.1,2.9c-1.8-1.8-4.5-2.4-6.9-1.7v-3.3h-2v8h2v-2.6c2.2-1,4.8-0.2,6.1,1.8c0,0,0,0,0,0.1h0C40.7,55,41,56,41,57h2
			c0-1.2-0.3-2.4-0.9-3.5C43.2,52,45.1,51,47,51c0.9,0,1.8,0.2,2.6,0.6c0,0,0,0,0,0c1,0.5,1.9,1.3,2.5,2.3C50.7,55.6,50,57.8,50,60
			h2c0-4.4,3.6-8,8-8v-2c-2.4,0-4.7,0.8-6.5,2.4c-0.7-0.9-1.5-1.7-2.5-2.2c0.4-4.1,3.8-7.2,7.9-7.1h1v-2h-1
			C54.1,41,50,44.5,49.2,49.3z M25,31h2v-2h-2V31z M29,31h2v-2h-2V31z M33,31h2v-2h-2V31z M11,55h2v-2h-2V55z M2,37H0v2h2V37z
			 M58,48v-2h-2v2H58z M50,42h-2v2h2V42z M37,60h2v-2h-2V60z M58,35v2h2v-2H58z"/>
	</g>
</g>
</svg>
